<svg xmlns="http://www.w3.org/2000/svg" width="80" height="24" viewBox="0 0 80 24"><g fill="none" fill-rule="evenodd"><g fill="#10A8CD" fill-rule="nonzero"><g><g><path d="M78.143 21.126c-2.234 0-3.281-.823-4.607-1.866-1.477-1.162-3.151-2.478-6.441-2.478s-4.964 1.317-6.441 2.478c-1.326 1.043-2.373 1.866-4.607 1.866s-3.281-.823-4.607-1.866c-1.477-1.162-3.15-2.478-6.441-2.478-3.29 0-4.964 1.317-6.441 2.478-1.325 1.043-2.373 1.866-4.607 1.866-2.233 0-3.28-.823-4.606-1.866-1.477-1.161-3.151-2.478-6.44-2.478-3.29 0-4.965 1.317-6.442 2.478-1.325 1.043-2.372 1.866-4.606 1.866-.75 0-1.357.521-1.357 1.164 0 .643.607 1.164 1.357 1.164 3.29 0 4.963-1.317 6.44-2.478 1.326-1.043 2.373-1.867 4.607-1.867s3.281.824 4.607 1.866c1.477 1.162 3.15 2.479 6.44 2.479 3.29 0 4.964-1.317 6.441-2.478 1.326-1.043 2.373-1.867 4.607-1.867s3.281.824 4.607 1.867c1.477 1.161 3.151 2.478 6.44 2.478 3.29 0 4.965-1.317 6.442-2.478 1.326-1.043 2.373-1.867 4.607-1.867s3.281.824 4.607 1.867c1.477 1.161 3.151 2.478 6.441 2.478.75 0 1.357-.521 1.357-1.164 0-.643-.607-1.164-1.357-1.164zM8.472 21.493c-.454-.354-.872-.778-1.314-1.227-1.356-1.377-2.893-2.938-5.913-2.938-.688 0-1.245.618-1.245 1.38 0 .761.557 1.379 1.245 1.379 2.051 0 3.013.976 4.23 2.212.48.488.977.993 1.562 1.45.218.17.468.251.716.251.392 0 .777-.204 1.02-.585.396-.623.26-1.483-.301-1.922zM78.593 4.344c-2.317 0-3.403-.823-4.778-1.866C72.284 1.317 70.547 0 67.135 0c-3.41 0-5.147 1.317-6.679 2.478-.573.434-.611 1.17-.086 1.644s1.415.506 1.988.072c1.375-1.043 2.461-1.867 4.778-1.867 2.317 0 3.403.824 4.778 1.867 1.531 1.161 3.267 2.478 6.679 2.478.777 0 1.407-.521 1.407-1.164 0-.643-.63-1.164-1.407-1.164zM59.957 5.032c-.187-.622-.928-.997-1.658-.838-.46.101-.952.15-1.502.15-2.242 0-3.293-.823-4.623-1.866C50.69 1.317 49.01 0 45.71 0c-3.302 0-4.982 1.317-6.464 2.478-1.33 1.043-2.381 1.867-4.623 1.867-2.242 0-3.293-.824-4.623-1.867C28.517 1.317 26.837 0 23.536 0c-3.302 0-4.982 1.317-6.464 2.478-1.33 1.043-2.381 1.867-4.623 1.867-2.242 0-3.293-.824-4.623-1.867C6.343 1.317 4.663 0 1.362 0 .609 0 0 .521 0 1.164c0 .642.61 1.163 1.362 1.163 2.242 0 3.293.824 4.623 1.866 1.482 1.162 3.162 2.479 6.464 2.479 3.302 0 4.982-1.317 6.464-2.478 1.33-1.043 2.381-1.867 4.623-1.867 2.242 0 3.293.824 4.623 1.867 1.482 1.161 3.162 2.478 6.464 2.478 3.301 0 4.981-1.317 6.464-2.478 1.33-1.043 2.381-1.867 4.623-1.867 2.242 0 3.293.824 4.623 1.867 1.483 1.161 3.163 2.478 6.464 2.478.771 0 1.505-.075 2.18-.223.728-.16 1.167-.794.98-1.417z" transform="translate(-680 -5054) translate(0 900) rotate(-180 380 2089)"></path></g></g></g></g></svg>